<!-- Generator: Adobe Illustrator 23.0.5, SVG Export Plug-In  -->
<svg version="1.1" xmlns="http://www.w3.org/2000/svg" xmlns:xlink="http://www.w3.org/1999/xlink" x="0px" y="0px" width="1080px"
	 height="1080px" viewBox="0 0 1080 1080" style="enable-background:new 0 0 1080 1080;" xml:space="preserve">
<style type="text/css">
	.st0{fill:#1F1F24;}
	.st1{fill:#EEEEEE;}
	.st2{fill:#FFE65A;}
</style>
<defs>
</defs>
<circle class="st0" cx="540" cy="540" r="540"/>
<g>
	<g>
		<path class="st1" d="M107.62,520.37c52.59,0,59.99-28.89,59.99-54.81c0-20.74-2.96-41.48-5.92-62.22
			c-2.96-20.74-5.92-40.74-5.92-61.47c0-68.14,44.44-97.03,107.39-97.03h15.55v40.74h-13.33c-43.7,0-58.51,23.7-58.51,63.7
			c0,17.04,2.22,34.81,5.18,52.59c2.96,18.52,5.18,36.29,5.18,56.29c0.74,47.4-20,71.1-53.33,79.99v1.48
			c33.33,8.15,54.07,33.33,53.33,80.73c0,20-2.22,38.51-5.18,56.29c-2.96,18.52-5.18,35.55-5.18,53.33
			c0,41.48,17.04,64.44,58.51,64.44h13.33v40.74h-15.55c-61.47,0-107.39-26.66-107.39-101.47c0-20,2.96-40.74,5.92-60.73
			c2.96-20,5.92-39.99,5.92-59.99c0-22.96-7.41-54.81-59.99-54.81V520.37z"/>
	</g>
	<g>
		<path class="st1" d="M972.38,559.63c-52.59,0-59.99,28.89-59.99,54.81c0,20.74,2.96,41.48,5.92,62.22
			c2.96,20.74,5.92,40.74,5.92,61.47c0,68.14-44.44,97.03-107.39,97.03h-15.55v-40.74h13.33c43.7,0,58.51-23.7,58.51-63.7
			c0-17.04-2.22-34.81-5.18-52.59c-2.96-18.52-5.18-36.29-5.18-56.29c-0.74-47.4,20-71.1,53.33-79.99v-1.48
			c-33.33-8.15-54.07-33.33-53.33-80.73c0-20,2.22-38.51,5.18-56.29c2.96-18.52,5.18-35.55,5.18-53.33
			c0-41.48-17.04-64.44-58.51-64.44h-13.33v-40.74h15.55c61.47,0,107.39,26.66,107.39,101.47c0,20-2.96,40.74-5.92,60.73
			c-2.96,20-5.92,39.99-5.92,59.99c0,22.96,7.41,54.81,59.99,54.81V559.63z"/>
	</g>
	<polygon class="st2" points="540,460.54 699.54,739.95 768.34,739.95 540,340.05 311.66,739.95 380.46,739.95 	"/>
</g>
</svg>
