<!-- Generator: Adobe Illustrator 23.0.5, SVG Export Plug-In  -->
<svg version="1.1" xmlns="http://www.w3.org/2000/svg" xmlns:xlink="http://www.w3.org/1999/xlink" x="0px" y="0px" width="100px"
	 height="100px" viewBox="0 0 100 100" style="enable-background:new 0 0 100 100;" xml:space="preserve">
<style type="text/css">
	.st0{fill:#0868AC;}
</style>
<defs>
</defs>
<g>
	<path class="st0" d="M6.35,23.47C-2.5,36.67-1.4,53.84,5.36,67.91c0.16,0.34,0.33,0.67,0.49,1l0.31,0.63
		c0.06,0.12,0.13,0.24,0.2,0.36c0.12,0.23,0.23,0.43,0.35,0.66l0.65,1.15l0.37,0.63l0.75,1.22l0.32,0.51
		c0.35,0.54,0.71,1.09,1.08,1.62l0.21,0.3c0.32,0.46,0.65,0.91,0.99,1.36l0.38,0.49l0.91,1.17l0.35,0.43
		c0.42,0.51,0.84,1.02,1.27,1.51c0.04,0.05,0.06,0.06,0.08,0.08c0.42,0.48,0.86,0.95,1.29,1.41l0.42,0.43l1.03,1.05l0.42,0.42
		c0.46,0.45,0.94,0.9,1.42,1.34l1.55,1.36l0.53,0.44l1.07,0.87l0.57,0.45l1.2,0.9l0.56,0.41c0.38,0.28,0.78,0.54,1.17,0.8l0.51,0.35
		c0.6,0.4,1.21,0.78,1.83,1.16l0.51,0.32l1.38,0.8c0.25,0.14,0.51,0.27,0.76,0.41l0.98,0.53l0.23,0.11l0.41,0.2l1.56,0.75l0.33,0.15
		c0.6,0.27,1.21,0.53,1.82,0.78l0.44,0.18l1.71,0.66l0.22,0.08c0.63,0.23,1.27,0.44,1.91,0.65l0.46,0.14
		c0.63,0.2,1.3,0.45,1.97,0.58c42.82,8.1,55.25-26.7,55.25-26.7C87.13,86.2,68.59,89.92,50.99,85.78c-0.67-0.16-1.31-0.37-1.96-0.57
		l-0.49-0.15c-0.63-0.2-1.26-0.41-1.89-0.64l-0.26-0.1c-0.56-0.21-1.11-0.42-1.66-0.64l-0.47-0.19c-0.6-0.25-1.2-0.51-1.8-0.78
		l-0.36-0.16l-1.52-0.73l-0.44-0.22c-0.39-0.19-0.78-0.41-1.17-0.65l-0.78-0.42c-0.48-0.26-0.94-0.54-1.41-0.82l-0.48-0.28
		c-0.62-0.38-1.23-0.76-1.83-1.16c-0.17-0.11-0.33-0.23-0.49-0.34l-1.3-0.9c-0.14-0.1-0.31-0.21-0.42-0.3l-1.23-0.92l-0.55-0.43
		l-1.11-0.9l-0.49-0.41l-1.38-1.21c-0.05-0.05-0.1-0.09-0.16-0.13l-1.45-1.37l-0.41-0.41l-1.04-1.07l-0.41-0.42
		c-0.44-0.46-0.86-0.93-1.25-1.41c-0.02-0.02-0.04-0.05-0.06-0.07c-0.44-0.5-0.88-1.02-1.3-1.54l-0.31-0.42l-0.94-1.2l-0.31-0.44
		l-1.08-1.49C8.97,49.08,5.46,30.01,13.26,14.38"/>
	<path class="st0" d="M33.83,12.35c-6.4,9.56-6.06,22.38-1.06,32.46c0.84,1.7,1.78,3.34,2.83,4.9c0.96,1.43,2.02,3.12,3.3,4.27
		c0.46,0.53,0.94,1.04,1.44,1.55l0.38,0.39c0.48,0.48,0.97,0.96,1.47,1.41c0.02,0.02,0.04,0.04,0.06,0.06
		c0.57,0.52,1.14,0.97,1.73,1.49l0.39,0.31c0.59,0.47,1.19,0.92,1.79,1.36l0.05,0.04c0.27,0.19,0.54,0.37,0.82,0.56
		c0.13,0.09,0.26,0.18,0.39,0.27c0.44,0.29,0.88,0.57,1.33,0.84l0.19,0.11l1.18,0.65c0.14,0.08,0.31,0.15,0.42,0.23l0.82,0.44
		c0.04,0.02,0.08,0.04,0.13,0.06c0.56,0.29,1.14,0.57,1.71,0.83l0.38,0.16c0.47,0.21,0.93,0.4,1.41,0.59l0.6,0.23
		c0.43,0.16,0.86,0.32,1.29,0.46l0.58,0.19c0.62,0.19,1.25,0.45,1.87,0.56C92.37,72.46,100,46.02,100,46.02
		C93.12,56.3,79.8,61.2,65.58,57.37c-0.63-0.17-1.25-0.36-1.87-0.56c-0.19-0.06-0.38-0.12-0.56-0.19l-1.31-0.47l-0.63-0.23
		c-0.47-0.19-0.94-0.39-1.41-0.59l-0.38-0.16c-0.58-0.26-1.16-0.54-1.73-0.83l-0.87-0.45l-0.5-0.27c-0.37-0.21-0.73-0.42-1.09-0.64
		l-0.26-0.15c-0.45-0.27-0.89-0.55-1.33-0.84c-0.13-0.09-0.27-0.18-0.4-0.28l-0.86-0.59c-0.61-0.44-1.2-0.89-1.78-1.36l-0.41-0.32
		c-6.25-5.1-11.16-12.07-13.5-19.96c-2.46-8.19-1.93-17.39,2.33-24.85"/>
	<path class="st0" d="M56.95,4.04c-3.77,5.79-4.15,12.92-1.53,19.28c2.76,6.76,8.42,12.05,15.03,14.6l0.82,0.32l0.36,0.12l1.18,0.32
		c18.25,3.66,23.2-9.72,24.52-11.69c-4.34,6.48-11.63,8.03-20.57,5.78c-0.71-0.18-1.48-0.44-2.16-0.69
		c-0.87-0.32-1.73-0.69-2.57-1.11c-1.59-0.79-3.1-1.75-4.51-2.85c-8-6.3-12.97-18.34-7.75-28.13"/>
</g>
</svg>
