<!-- Generator: Adobe Illustrator 23.0.5, SVG Export Plug-In  -->
<svg version="1.1" xmlns="http://www.w3.org/2000/svg" xmlns:xlink="http://www.w3.org/1999/xlink" x="0px" y="0px"
	 width="150.94px" height="100px" viewBox="0 0 150.94 100" style="enable-background:new 0 0 150.94 100;" xml:space="preserve">
<style type="text/css">
	.st0{fill:#EEEEEE;}
</style>
<defs>
</defs>
<path class="st0" d="M131.1,9.29c-3.26,0.08-5.19,1.5-5.82,4.22c0.84,0.73,1.96,1.05,3.09,1c2.47-0.1,4.91-1.98,4.22-5.17
	C132.06,9.29,131.57,9.28,131.1,9.29 M147.91,0h-0.29c-2.33,0.07-2.69,1.34-7.71,2.58c-5.08,1.25-9.98,0.05-15.45,2.34
	c-16.32,6.85-19.8,30.46-34.64,38.84c-11.09,6.26-21.81,9.05-31.87,12.2c-6.61,2.07-13.17,4.46-19.16,9.62
	c-4.65,4.01-5.93,7.12-10.77,12.15c-4.94,5.11-20.14-3.94-27.55,2.68c-0.6,0.55-0.64,1.47-0.09,2.07c0.04,0.04,0.08,0.08,0.12,0.12
	c1.6,1.4,4.66,4.75,7.56,5.78C7.14,90.12,1.94,95.25,3,97.82c1.12,2.7,14.02,0.87,25.94-6.33c5.55-3.35,9.98-8.19,18.63-9.34
	c11.19-1.49,24.09,0.96,37.05,2.82c-1.92,5.73-5.78,9.54-8.87,14.12c-0.96,1.03,1.92,1.15,5.21,0.52
	c5.93-1.46,10.17-2.64,14.64-5.23c5.48-3.19,6.31-11.37,13.03-13.14c3.25,4.99,11.33,6.68,17.56,4.01c0.35-0.15,0.68-0.31,1.01-0.48
	c0.75-0.65,0.31-1.42-0.15-1.98c-0.22-0.2-0.43-0.41-0.63-0.63c-3.51-3.77-4.31-12.67-2.75-17c1.77-4.92,3.53-12.8,5.31-19.31
	c1.92-6.97,2.63-15.8,4.95-19.36c3.49-5.36,7.35-7.2,10.7-10.22c3.35-3.02,6.42-5.96,6.31-12.87C150.89,1.28,149.84,0.05,147.91,0
	 M148.27,7.26c-0.69,4.77-3.74,7.39-7.34,9.91c-3.14,2.21-6.61,4.35-8.84,7.81c-2.28,3.54-3.72,15.66-7.25,27.64
	c-2.93,9.93-7.29,19.76-14.76,24.5c-0.48,0.31-1.12,0.03-1.23-0.52c-0.52-2.78-0.42-7.85-1.28-6.21c-1.08,3.09-2.3,6.03-3.74,8.76
	c-4.39,8.4-10.75,14.83-21.02,17.35c-0.5,0.11-0.99-0.2-1.11-0.7c-0.06-0.25-0.01-0.52,0.14-0.73c4.74-6.57,8.98-13.64,9.5-24.43
	c0.04-0.93-1.13-1.36-1.71-0.63c-2.24,2.76-2.79,9.32-6.06,11.34c-2.57,0.28-5.17,0.28-7.79,0.12c-10.76-0.65-21.8-3.88-31.86-0.65
	c-6.85,2.2-14.05,8.46-19.85,10.97c-6.82,2.94-10.05,5.73-18.67,5.54C4.52,96.13,9,91,10.52,88.79c0.48-0.71-0.55-1.46-1.52-1.92
	c-2.33-1.07-4.67-3.98-7.16-5.11c0.32-0.59,1.45-1.18,2.07-1.53c5.65-3.28,20.63,3.7,24.65-0.25c2.48-2.44,4.16-4.58,5.85-7.06
	c1.64-2.41,4.13-4.95,6.71-7.06c1.09-0.88,2.22-1.71,3.38-2.5c4.39-3.01,6.81-3.23,12.5-5.34c7.24-2.69,16.2-5.05,23.97-8.02
	c4.8-1.84,10.01-4.1,14.27-7.27c1.01-0.75,1.96-1.56,2.85-2.42c12.14-11.86,14.55-32.72,33.47-34.66c2.29-0.24,3.92-0.33,5.63-0.39
	c1.91-0.05,3.8-0.52,5.69-1.43c0.58-0.25,4.05-2.35,5.22-1.34c0.78,0.68,0.2,4.34,0.15,4.74"/>
</svg>
