<!-- Generator: Adobe Illustrator 23.0.5, SVG Export Plug-In  -->
<svg version="1.1" xmlns="http://www.w3.org/2000/svg" xmlns:xlink="http://www.w3.org/1999/xlink" x="0px" y="0px" width="98.59px"
	 height="101.86px" viewBox="0 0 98.59 101.86" style="enable-background:new 0 0 98.59 101.86;" xml:space="preserve">
<style type="text/css">
	.st0{stroke:#000000;stroke-width:2.149;}
	.st1{fill:#336791;}
	.st2{fill:none;stroke:#FFFFFF;stroke-width:0.716;stroke-linecap:round;stroke-linejoin:round;}
	.st3{fill:none;stroke:#FFFFFF;stroke-width:0.716;stroke-linecap:round;stroke-linejoin:bevel;}
	.st4{fill:none;stroke:#FFFFFF;stroke-width:0.716;stroke-linejoin:round;}
	.st5{fill:#FFFFFF;stroke:#FFFFFF;stroke-width:0.239;}
	.st6{fill:#FFFFFF;stroke:#FFFFFF;stroke-width:0.119;}
</style>
<defs>
</defs>
<g>
	<path class="st0" d="M75.37,75.73c0.69-5.77,0.48-6.61,4.78-5.68l1.09,0.1c3.3,0.15,7.62-0.53,10.2-1.71
		c5.46-2.53,8.7-6.77,3.32-5.65c-12.29,2.53-13.18-1.63-13.18-1.63c12.98-19.26,18.41-43.7,13.72-49.68
		c-12.77-16.32-34.88-8.6-35.25-8.4L59.93,3.1c-2.42-0.51-5.1-0.81-8.2-0.85c-5.56-0.09-9.78,1.46-12.98,3.89
		c0,0-39.44-16.25-37.6,20.43c0.39,7.8,11.18,59.09,24.06,43.57c4.71-5.67,9.26-10.46,9.26-10.46c2.25,1.5,4.96,2.27,7.8,1.99
		l0.22-0.19c-0.07,0.73-0.04,1.47,0.09,2.2c-3.32,3.71-2.34,4.36-8.97,5.72c-6.71,1.38-2.76,3.84-0.2,4.49
		c3.12,0.78,10.34,1.89,15.22-4.94l-0.2,0.78c1.3,1.04,1.21,7.48,1.4,12.08c0.19,4.6,0.49,8.9,1.43,11.43s2.04,9.05,10.75,7.23
		c7.28-1.56,12.85-3.81,13.36-24.7"/>
	<path class="st1" d="M94.72,62.82c-12.29,2.53-13.18-1.63-13.18-1.63c12.98-19.26,18.41-43.7,13.72-49.68
		c-12.77-16.32-34.88-8.6-35.25-8.4l-0.12,0.02c-2.7-0.54-5.45-0.83-8.2-0.85c-5.56-0.09-9.78,1.46-12.98,3.89
		c0,0-39.44-16.25-37.6,20.43c0.39,7.8,11.18,59.09,24.06,43.57c4.74-5.7,9.29-10.5,9.29-10.5c2.25,1.5,4.96,2.27,7.8,1.99
		l0.22-0.19c-0.06,0.73-0.03,1.47,0.09,2.2c-3.32,3.71-2.34,4.36-8.97,5.72c-6.71,1.38-2.76,3.84-0.2,4.49
		c3.12,0.78,10.34,1.89,15.22-4.94l-0.2,0.78c1.3,1.04,2.21,6.77,2.06,11.97c-0.15,5.19-0.26,8.76,0.77,11.55s2.04,9.05,10.75,7.23
		c7.28-1.56,11.05-5.61,11.58-12.35c0.37-4.79,1.22-4.09,1.28-8.37l0.68-2.03c0.78-6.5,0.13-8.6,4.61-7.62l1.09,0.1
		c3.3,0.15,7.63-0.53,10.16-1.71C96.87,65.94,100.11,61.71,94.72,62.82L94.72,62.82z"/>
	<g>
		<g>
			<path class="st2" d="M49.14,66.51c-0.34,12.1,0.09,24.28,1.27,27.21c1.18,2.92,3.72,8.71,12.44,6.85
				c7.28-1.56,9.93-4.58,11.08-11.25l2.69-21.33 M38.69,5.86c0,0-39.47-16.14-37.63,20.54c0.39,7.8,11.18,59.09,24.06,43.57
				c4.7-5.67,8.95-10.1,8.95-10.1 M60.01,2.91c-1.36,0.43,21.95-8.52,35.21,8.41C99.89,17.3,94.47,41.75,81.49,61"/>
			<path class="st3" d="M81.49,60.99c0,0,0.85,4.17,13.18,1.62c5.39-1.11,2.14,3.12-3.32,5.65c-4.48,2.08-14.53,2.61-14.7-0.26
				c-0.43-7.42,5.29-5.16,4.88-7.02c-0.37-1.67-2.93-3.32-4.62-7.41c-1.48-3.57-20.23-30.99,5.2-26.92
				c0.94-0.19-6.63-24.23-30.44-24.58S28.64,31.35,28.64,31.35"/>
		</g>
		<g>
			<path class="st4" d="M42.48,63.54c-3.32,3.71-2.34,4.36-8.97,5.72c-6.71,1.38-2.76,3.84-0.2,4.49
				c3.12,0.78,10.34,1.89,15.22-4.94c1.49-2.08-0.01-5.4-2.05-6.24C45.5,62.15,44.18,61.64,42.48,63.54L42.48,63.54z"/>
			<path class="st2" d="M42.26,63.47c-0.34-2.18,0.71-4.77,1.84-7.8c1.69-4.55,5.59-9.1,2.47-23.54
				c-2.33-10.75-17.94-2.24-17.94-0.78s0.71,7.4-0.26,14.3c-1.26,9.02,5.74,16.65,13.8,15.87"/>
		</g>
	</g>
	<g>
		<path class="st5" d="M38.55,31.13c-0.07,0.5,0.91,1.83,2.19,2.01c1.28,0.18,2.37-0.86,2.44-1.36s-0.91-1.05-2.19-1.22
			C39.71,30.37,38.61,30.64,38.55,31.13z"/>
		<path class="st6" d="M77.5,30.11c0.07,0.5-0.91,1.83-2.19,2.01s-2.38-0.86-2.44-1.36c-0.06-0.5,0.91-1.05,2.19-1.22
			S77.44,29.62,77.5,30.11z"/>
	</g>
	<path class="st2" d="M82.08,26.67c0.21,3.91-0.84,6.57-0.98,10.73c-0.2,6.04,2.88,12.97-1.76,19.89"/>
</g>
</svg>
