<!-- Generator: Adobe Illustrator 23.0.5, SVG Export Plug-In  -->
<svg version="1.1" xmlns="http://www.w3.org/2000/svg" xmlns:xlink="http://www.w3.org/1999/xlink" x="0px" y="0px" width="97.51px"
	 height="101px" viewBox="0 0 97.51 101" style="enable-background:new 0 0 97.51 101;" xml:space="preserve">
<style type="text/css">
	.st0{fill:#EEEEEE;stroke:#1F1F24;stroke-miterlimit:10;}
</style>
<defs>
</defs>
<g>
	<path class="st0" d="M74.86,75.3c0.69-5.77,0.48-6.61,4.78-5.68l1.09,0.1c3.3,0.15,7.62-0.53,10.2-1.71
		c5.46-2.53,8.7-6.77,3.32-5.65c-12.29,2.53-13.18-1.63-13.18-1.63c12.98-19.26,18.41-43.7,13.72-49.68
		c-12.77-16.32-34.88-8.6-35.25-8.4l-0.12,0.02c-2.42-0.51-5.1-0.81-8.2-0.85c-5.56-0.09-9.78,1.46-12.98,3.89
		c0,0-39.44-16.25-37.6,20.43c0.39,7.8,11.18,59.09,24.06,43.57c4.71-5.67,9.26-10.46,9.26-10.46c2.25,1.5,4.96,2.27,7.8,1.99
		l0.22-0.19c-0.07,0.73-0.04,1.47,0.09,2.2c-3.32,3.71-2.34,4.36-8.97,5.72c-6.71,1.38-2.76,3.84-0.2,4.49
		c3.12,0.78,10.34,1.89,15.22-4.94l-0.2,0.78c1.3,1.04,1.21,7.48,1.4,12.08c0.19,4.6,0.49,8.9,1.43,11.43s2.04,9.05,10.75,7.23
		c7.28-1.56,12.85-3.81,13.36-24.7"/>
	<path class="st0" d="M94.21,62.39c-12.29,2.53-13.18-1.63-13.18-1.63c12.98-19.26,18.41-43.7,13.72-49.68
		c-12.77-16.32-34.88-8.6-35.25-8.4l-0.12,0.02c-2.7-0.54-5.45-0.83-8.2-0.85c-5.56-0.09-9.78,1.46-12.98,3.89
		c0,0-39.44-16.25-37.6,20.43C1,33.98,11.78,85.26,24.66,69.74c4.74-5.7,9.29-10.5,9.29-10.5c2.25,1.5,4.96,2.27,7.8,1.99l0.22-0.19
		c-0.06,0.73-0.03,1.47,0.09,2.2c-3.32,3.71-2.34,4.36-8.97,5.72c-6.71,1.38-2.76,3.84-0.2,4.49c3.12,0.78,10.34,1.89,15.22-4.94
		l-0.2,0.78c1.3,1.04,2.21,6.77,2.06,11.97c-0.15,5.19-0.26,8.76,0.77,11.55c1.02,2.79,2.04,9.05,10.75,7.23
		c7.28-1.56,11.05-5.61,11.58-12.35c0.37-4.79,1.22-4.09,1.28-8.37l0.68-2.03c0.78-6.5,0.13-8.6,4.61-7.62l1.09,0.1
		c3.3,0.15,7.63-0.53,10.16-1.71C96.36,65.52,99.6,61.28,94.21,62.39L94.21,62.39z"/>
	<g>
		<g>
			<path class="st0" d="M48.64,66.08c-0.34,12.1,0.09,24.28,1.27,27.21c1.18,2.92,3.72,8.71,12.44,6.85
				c7.28-1.56,9.93-4.58,11.08-11.25l2.69-21.33 M38.19,5.43c0,0-39.47-16.14-37.63,20.54c0.39,7.8,11.18,59.09,24.06,43.57
				c4.7-5.67,8.95-10.1,8.95-10.1 M59.5,2.49c-1.36,0.43,21.95-8.52,35.21,8.41c4.68,5.98-0.74,30.42-13.72,49.68"/>
			<path class="st0" d="M80.99,60.57c0,0,0.85,4.17,13.18,1.62c5.39-1.11,2.14,3.12-3.32,5.65c-4.48,2.08-14.53,2.61-14.7-0.26
				c-0.43-7.42,5.29-5.16,4.88-7.02c-0.37-1.67-2.93-3.32-4.62-7.41c-1.48-3.57-20.23-30.99,5.2-26.92
				C82.56,26.04,74.99,2,51.19,1.65S28.13,30.92,28.13,30.92"/>
		</g>
		<g>
			<path class="st0" d="M41.98,63.11c-3.32,3.71-2.34,4.36-8.97,5.72c-6.71,1.38-2.76,3.84-0.2,4.49
				c3.12,0.78,10.34,1.89,15.22-4.94c1.49-2.08-0.01-5.4-2.05-6.24C45,61.73,43.68,61.22,41.98,63.11L41.98,63.11z"/>
			<path class="st0" d="M41.76,63.05c-0.34-2.18,0.71-4.77,1.84-7.8c1.69-4.55,5.59-9.1,2.47-23.54
				c-2.33-10.75-17.94-2.24-17.94-0.78c0,1.46,0.71,7.4-0.26,14.3c-1.26,9.02,5.74,16.65,13.8,15.87"/>
		</g>
	</g>
	<g>
		<path class="st0" d="M38.05,30.7c-0.07,0.5,0.91,1.83,2.19,2.01c1.28,0.18,2.37-0.86,2.44-1.36c0.07-0.5-0.91-1.05-2.19-1.22
			C39.21,29.95,38.11,30.21,38.05,30.7z"/>
		<path class="st0" d="M77,29.69c0.07,0.5-0.91,1.83-2.19,2.01c-1.28,0.18-2.38-0.86-2.44-1.36c-0.06-0.5,0.91-1.05,2.19-1.22
			C75.84,28.93,76.94,29.2,77,29.69z"/>
	</g>
	<path class="st0" d="M81.58,26.24c0.21,3.91-0.84,6.57-0.98,10.73c-0.2,6.04,2.88,12.97-1.76,19.89"/>
</g>
</svg>
