<!-- Generator: Adobe Illustrator 23.0.5, SVG Export Plug-In  -->
<svg version="1.1" xmlns="http://www.w3.org/2000/svg" xmlns:xlink="http://www.w3.org/1999/xlink" x="0px" y="0px" width="63.76px"
	 height="80.66px" viewBox="0 0 63.76 80.66" style="enable-background:new 0 0 63.76 80.66;" xml:space="preserve">
<style type="text/css">
	.st0{fill-rule:evenodd;clip-rule:evenodd;fill:#EEEEEE;}
</style>
<defs>
</defs>
<path class="st0" d="M1.71,49.2C0.67,51.69,0.09,54.34,0,57.04c0.14,1.66,0.71,3.26,1.65,4.64c1.76,2.04,3.88,3.74,6.25,5.02
	l15.32,10.2c1.89,1.5,4.01,2.68,6.28,3.49c1.47,0.35,3.01,0.35,4.48,0c2.28-0.8,4.42-1.97,6.33-3.47l15.49-10.21
	c2.4-1.28,4.54-2.99,6.33-5.04c0.94-1.39,1.51-3,1.64-4.67c-0.1-2.72-0.7-5.39-1.75-7.9L48.46,6.48c-0.3-1.38-0.85-2.7-1.61-3.88
	c-0.56-0.68-1.28-1.2-2.09-1.52C43.4,0.7,41.98,0.58,40.58,0.7H22.94c-1.41-0.13-2.82,0-4.18,0.37c-0.82,0.32-1.54,0.85-2.09,1.53
	c-0.76,1.19-1.3,2.5-1.6,3.88L1.71,49.2L1.71,49.2z M43.62,2.03c0.79,1.25,1.35,2.63,1.65,4.08L59.8,53.86
	c-5.46-2.83-11.32-4.81-17.38-5.88l-9.45-31.97c-0.2-0.65-0.89-1.02-1.55-0.82c-0.13,0.04-0.26,0.1-0.37,0.19
	c-0.21,0.16-0.37,0.38-0.44,0.63l-9.34,31.96c-6.09,1.06-11.98,3.05-17.46,5.9l14.6-47.75c0.3-1.45,0.86-2.84,1.65-4.09
	c0.58-0.71,1.33-1.26,2.17-1.61c1.43-0.39,2.92-0.51,4.39-0.37h10.43c1.47-0.14,2.96-0.01,4.39,0.37c0.85,0.35,1.6,0.9,2.18,1.61
	L43.62,2.03z M32.37,59.6c4.5,0.26,8.95-0.95,12.7-3.45c0.86,2.71,0.58,5.65-0.77,8.15c-1.38,2.34-3.38,4.26-5.78,5.53
	c-2.52,1.6-4.68,2.99-4.68,6.67c0,1.18,0.26,2.35,0.78,3.41c-3.47-1.44-5.73-4.83-5.73-8.59V71.1c0-2.55,0-5.69-3.59-5.69
	c-0.5,0-1,0.1-1.46,0.29c-0.93,0.39-1.67,1.13-2.06,2.06c-0.19,0.46-0.29,0.96-0.3,1.46c-2.46-2.69-3.79-6.23-3.69-9.88
	c-0.02-1.58,0.2-3.15,0.65-4.66c1.49,2.83,7.17,4.93,13.94,4.93V59.6z"/>
</svg>
