<!-- Generator: Adobe Illustrator 23.0.5, SVG Export Plug-In  -->
<svg version="1.1" xmlns="http://www.w3.org/2000/svg" xmlns:xlink="http://www.w3.org/1999/xlink" x="0px" y="0px" width="16px"
	 height="16px" viewBox="0 0 16 16" style="enable-background:new 0 0 16 16;" xml:space="preserve">
<style type="text/css">
	.st0{fill:#FFFFFF;}
</style>
<defs>
</defs>
<circle class="st0" cx="8" cy="8" r="8"/>
<g>
	<g>
		<path d="M1.42,7.71c0.8,0,0.91-0.43,0.91-0.81c0-0.31-0.05-0.61-0.09-0.92C2.2,5.68,2.16,5.38,2.16,5.08c0-1,0.68-1.43,1.63-1.43
			h0.24v0.6h-0.2c-0.66,0-0.89,0.35-0.89,0.94c0,0.25,0.03,0.51,0.08,0.78C3.06,6.24,3.09,6.5,3.09,6.79
			c0.01,0.7-0.3,1.05-0.81,1.18v0.02C2.79,8.11,3.1,8.49,3.09,9.18c0,0.29-0.03,0.57-0.08,0.83c-0.05,0.27-0.08,0.52-0.08,0.79
			c0,0.61,0.26,0.95,0.89,0.95h0.2v0.6H3.79c-0.93,0-1.63-0.39-1.63-1.5c0-0.29,0.05-0.6,0.09-0.9c0.05-0.29,0.09-0.59,0.09-0.88
			c0-0.34-0.11-0.81-0.91-0.81V7.71z"/>
	</g>
	<g>
		<path d="M14.58,8.29c-0.8,0-0.91,0.43-0.91,0.81c0,0.31,0.05,0.61,0.09,0.92c0.05,0.31,0.09,0.6,0.09,0.91
			c0,1-0.68,1.43-1.63,1.43h-0.24v-0.6h0.2c0.66,0,0.89-0.35,0.89-0.94c0-0.25-0.03-0.51-0.08-0.78c-0.05-0.27-0.08-0.54-0.08-0.83
			c-0.01-0.7,0.3-1.05,0.81-1.18V8.01c-0.51-0.12-0.82-0.49-0.81-1.19c0-0.29,0.03-0.57,0.08-0.83c0.05-0.27,0.08-0.52,0.08-0.79
			c0-0.61-0.26-0.95-0.89-0.95h-0.2v-0.6h0.24c0.93,0,1.63,0.39,1.63,1.5c0,0.29-0.05,0.6-0.09,0.9c-0.05,0.29-0.09,0.59-0.09,0.88
			c0,0.34,0.11,0.81,0.91,0.81V8.29z"/>
	</g>
	<polygon points="8,6.83 10.43,10.95 11.47,10.95 8,5.05 4.53,10.95 5.57,10.95 	"/>
</g>
</svg>
