<!-- Generator: Adobe Illustrator 23.0.5, SVG Export Plug-In  -->
<svg version="1.1" xmlns="http://www.w3.org/2000/svg" xmlns:xlink="http://www.w3.org/1999/xlink" x="0px" y="0px" width="90.81px"
	 height="100px" viewBox="0 0 90.81 100" style="enable-background:new 0 0 90.81 100;" xml:space="preserve">
<style type="text/css">
	.st0{fill:#EEEEEE;}
</style>
<defs>
</defs>
<path class="st0" d="M41.29,1.07c2.51-1.42,5.71-1.43,8.16,0l37.47,21.12c2.34,1.32,3.91,3.93,3.89,6.63v42.35
	c0.02,2.81-1.71,5.48-4.18,6.78L49.36,98.98c-2.6,1.43-5.77,1.35-8.28-0.23l-11.18-6.46c-0.76-0.45-1.62-0.82-2.16-1.55
	c0.48-0.64,1.32-0.72,2.01-1c1.56-0.5,2.98-1.25,4.41-2.06c0.36-0.25,0.8-0.16,1.15,0.07l9.54,5.52c0.68,0.39,1.37-0.13,1.95-0.45
	l36.6-20.65c0.45-0.22,0.7-0.7,0.67-1.19V29.01c0.05-0.56-0.27-1.08-0.78-1.31L46.1,6.77c-0.44-0.3-1.02-0.3-1.46,0L7.52,27.75
	c-0.5,0.23-0.85,0.74-0.78,1.3v41.95c-0.04,0.5,0.22,0.96,0.67,1.18l9.92,5.6c1.86,1,4.15,1.57,6.2,0.83
	c1.84-0.69,3.05-2.46,3.05-4.42l0.01-41.7c-0.04-0.62,0.54-1.13,1.14-1.07h4.77c0.63-0.02,1.12,0.65,1.04,1.27l-0.01,41.96
	c0,3.73-1.53,7.78-4.98,9.61c-4.25,2.2-9.5,1.73-13.7-0.38l-10.67-5.9C1.67,76.73-0.02,74.02,0,71.21V28.85
	c0.02-2.8,1.56-5.37,4.02-6.72L41.29,1.07z M52.09,30.43c5.42-0.31,11.22-0.21,16.09,2.46c3.77,2.05,5.87,6.34,5.94,10.54
	c-0.11,0.56-0.7,0.88-1.24,0.84c-1.57,0-3.14,0.02-4.72-0.01c-0.67,0.03-1.05-0.59-1.14-1.18c-0.45-2.01-1.55-3.99-3.44-4.96
	c-2.9-1.45-6.26-1.38-9.42-1.35c-2.31,0.13-4.79,0.32-6.75,1.68c-1.51,1.03-1.96,3.14-1.42,4.78c0.5,1.2,1.89,1.59,3.02,1.95
	c6.53,1.71,13.45,1.57,19.86,3.79c2.65,0.92,5.25,2.7,6.16,5.47c1.19,3.72,0.67,8.17-1.98,11.16c-2.15,2.46-5.27,3.76-8.39,4.52
	c-4.15,0.93-8.46,0.95-12.67,0.53c-3.96-0.45-8.08-1.49-11.14-4.19c-2.62-2.27-3.89-5.81-3.76-9.22c0.03-0.58,0.61-0.98,1.16-0.93
	h4.71c0.63-0.04,1.1,0.5,1.13,1.1c0.29,1.88,1.01,3.92,2.68,5.02c3.22,2.08,7.26,1.93,10.94,1.99c3.05-0.13,6.48-0.18,8.97-2.2
	c1.32-1.15,1.7-3.07,1.35-4.73c-0.39-1.4-1.88-2.05-3.14-2.51c-6.45-2.04-13.44-1.3-19.83-3.61c-2.59-0.92-5.1-2.65-6.09-5.31
	c-1.39-3.76-0.75-8.43,2.17-11.32c2.82-2.87,6.96-3.98,10.89-4.37L52.09,30.43z"/>
</svg>
