<!-- Generator: Adobe Illustrator 23.0.5, SVG Export Plug-In  -->
<svg version="1.1" xmlns="http://www.w3.org/2000/svg" xmlns:xlink="http://www.w3.org/1999/xlink" x="0px" y="0px" width="512px"
	 height="512px" viewBox="0 0 512 512" style="enable-background:new 0 0 512 512;" xml:space="preserve">
<style type="text/css">
	.st0{fill:#BD3D44;}
	.st1{stroke:#FFFFFF;stroke-width:40;}
	.st2{fill:#192F5D;}
	.st3{fill:#FFFFFF;}
</style>
<defs>
</defs>
<path class="st0" d="M0,0h512v512H0"/>
<path class="st1" d="M0,58h512 M0,137h512 M0,216h512 M0,295h512 M0,374h512 M0,453h512"/>
<path class="st2" d="M0,0h390v275H0V0z"/>
<path class="st3" d="M33,11l9.3,28.6L18,22h30L23.7,39.6"/>
<path class="st3" d="M98,11l9.3,28.6L83,22h30L88.7,39.6"/>
<path class="st3" d="M163,11l9.3,28.6L148,22h30l-24.3,17.6"/>
<path class="st3" d="M228,11l9.3,28.6L213,22h30l-24.3,17.6"/>
<path class="st3" d="M293,11l9.3,28.6L278,22h30l-24.3,17.6"/>
<path class="st3" d="M359,11l9.3,28.6L344,22h30l-24.3,17.6"/>
<path class="st3" d="M66,39l9.3,28.6L51,50h30L56.7,67.6"/>
<path class="st3" d="M131,39l9.3,28.6L116,50h30l-24.3,17.6"/>
<path class="st3" d="M196,39l9.3,28.6L181,50h30l-24.3,17.6"/>
<path class="st3" d="M261,39l9.3,28.6L246,50h30l-24.3,17.6"/>
<path class="st3" d="M326,39l9.3,28.6L311,50h30l-24.3,17.6"/>
<path class="st3" d="M33,66l9.3,28.6L18,77h30L23.7,94.6"/>
<path class="st3" d="M98,66l9.3,28.6L83,77h30L88.7,94.6"/>
<path class="st3" d="M163,66l9.3,28.6L148,77h30l-24.3,17.6"/>
<path class="st3" d="M228,66l9.3,28.6L213,77h30l-24.3,17.6"/>
<path class="st3" d="M293,66l9.3,28.6L278,77h30l-24.3,17.6"/>
<path class="st3" d="M359,66l9.3,28.6L344,77h30l-24.3,17.6"/>
<path class="st3" d="M66,94l9.3,28.6L51,105h30l-24.3,17.6"/>
<path class="st3" d="M131,94l9.3,28.6L116,105h30l-24.3,17.6"/>
<path class="st3" d="M196,94l9.3,28.6L181,105h30l-24.3,17.6"/>
<path class="st3" d="M261,94l9.3,28.6L246,105h30l-24.3,17.6"/>
<path class="st3" d="M326,94l9.3,28.6L311,105h30l-24.3,17.6"/>
<path class="st3" d="M33,121l9.3,28.6L18,132h30l-24.3,17.6"/>
<path class="st3" d="M98,121l9.3,28.6L83,132h30l-24.3,17.6"/>
<path class="st3" d="M163,121l9.3,28.6L148,132h30l-24.3,17.6"/>
<path class="st3" d="M228,121l9.3,28.6L213,132h30l-24.3,17.6"/>
<path class="st3" d="M293,121l9.3,28.6L278,132h30l-24.3,17.6"/>
<path class="st3" d="M359,121l9.3,28.6L344,132h30l-24.3,17.6"/>
<path class="st3" d="M66,149l9.3,28.6L51,160h30l-24.3,17.6"/>
<path class="st3" d="M131,149l9.3,28.6L116,160h30l-24.3,17.6"/>
<path class="st3" d="M196,149l9.3,28.6L181,160h30l-24.3,17.6"/>
<path class="st3" d="M261,149l9.3,28.6L246,160h30l-24.3,17.6"/>
<path class="st3" d="M326,149l9.3,28.6L311,160h30l-24.3,17.6"/>
<path class="st3" d="M33,177l9.3,28.6L18,188h30l-24.3,17.6"/>
<path class="st3" d="M98,177l9.3,28.6L83,188h30l-24.3,17.6"/>
<path class="st3" d="M163,177l9.3,28.6L148,188h30l-24.3,17.6"/>
<path class="st3" d="M228,177l9.3,28.6L213,188h30l-24.3,17.6"/>
<path class="st3" d="M293,177l9.3,28.6L278,188h30l-24.3,17.6"/>
<path class="st3" d="M359,177l9.3,28.6L344,188h30l-24.3,17.6"/>
<path class="st3" d="M66,205l9.3,28.6L51,216h30l-24.3,17.6"/>
<path class="st3" d="M131,205l9.3,28.6L116,216h30l-24.3,17.6"/>
<path class="st3" d="M196,205l9.3,28.6L181,216h30l-24.3,17.6"/>
<path class="st3" d="M261,205l9.3,28.6L246,216h30l-24.3,17.6"/>
<path class="st3" d="M326,205l9.3,28.6L311,216h30l-24.3,17.6"/>
<path class="st3" d="M33,232l9.3,28.6L18,243h30l-24.3,17.6"/>
<path class="st3" d="M98,232l9.3,28.6L83,243h30l-24.3,17.6"/>
<path class="st3" d="M163,232l9.3,28.6L148,243h30l-24.3,17.6"/>
<path class="st3" d="M228,232l9.3,28.6L213,243h30l-24.3,17.6"/>
<path class="st3" d="M293,232l9.3,28.6L278,243h30l-24.3,17.6"/>
<path class="st3" d="M359,232l9.3,28.6L344,243h30l-24.3,17.6"/>
<path marker-mid="url(#a)" class="st3" d="M0,0"/>
</svg>
